:FULLY-SPECIFIED
:FORCE-ALL-JOINTS-BE-3DOF
:DEGREES
1121
root 0.918734 14.6701 -28.2686 361.835 5.43527 363.184
lfemur -29.8468 8.6794 -24.9881
ltibia 70.4466 0 0
lfoot -27.2592 25.6328 0
ltoes -19.4164 0 0
rfemur -54.4219 -8.51499 15.6406
rtibia 76.4985 0 0
rfoot 1.38607 -1.95951 0
rtoes -3.0327 0 0
lowerback 14.8852 0.339365 -10.1169
upperback -0.987251 -1.20771 1.85434
thorax -9.25652 -0.0126747 8.076
lowerneck -4.36626 -2.40162 -4.23293
upperneck 4.86722 -3.23196 3.98798
head 2.49413 -1.57931 1.77793
lclavicle 3.12374e-14 -1.84207e-14 0
lhumerus 35.2263 -27.2461 70.2471
lradius 91.9421 0 0
lwrist 36.4468 0 0
lhand -30.5691 33.9339 0
lfingers 7.12502 0 0
lthumb -3.86618 63.8072 0
rclavicle 3.12374e-14 -1.84207e-14 0
rhumerus -15.8674 25.0263 -87.6923
rradius 88.2159 0 0
rwrist -24.7835 0 0
rhand -20.3707 -43.9886 0
rfingers 7.12502 0 0
rthumb 5.98053 -73.8187 0
1122
root 0.879494 14.6894 -28.0601 361.455 6.81891 363.176
lfemur -28.3543 8.35316 -24.5245
ltibia 69.7586 0 0
lfoot -27.5013 25.6679 0
ltoes -19.539 0 0
rfemur -53.8574 -8.23165 14.477
rtibia 73.5111 0 0
rfoot 3.71436 -1.68364 0
rtoes -1.53487 0 0
lowerback 14.7838 0.31418 -10.0092
upperback -0.961716 -1.21023 1.85666
thorax -9.17062 -0.0253592 8.01241
lowerneck -4.22779 -2.80047 -4.56033
upperneck 5.08968 -3.7699 4.15514
head 2.57282 -1.8496 1.85442
lclavicle 3.07019e-14 -1.6111e-14 0
lhumerus 29.1693 -28.2441 73.7281
lradius 93.1405 0 0
lwrist 36.8677 0 0
lhand -29.9944 33.4303 0
lfingers 7.12502 0 0
lthumb -3.31127 63.3087 0
rclavicle 3.07019e-14 -1.6111e-14 0
rhumerus -12.0081 24.5849 -85.636
rradius 89.5088 0 0
rwrist -23.0868 0 0
rhand -20.9177 -43.4699 0
rfingers 7.12502 0 0
rthumb 5.45233 -73.3104 0
1123
root 0.840255 14.7086 -27.8517 361.075 8.20256 363.168
lfemur -26.8617 8.02691 -24.0608
ltibia 69.0706 0 0
lfoot -27.7434 25.7029 0
ltoes -19.6616 0 0
rfemur -53.2929 -7.9483 13.3134
rtibia 70.5237 0 0
rfoot 6.04266 -1.40777 0
rtoes -0.0370429 0 0
lowerback 14.6824 0.288995 -9.90143
upperback -0.936182 -1.21275 1.85898
thorax -9.08472 -0.0380437 7.94881
lowerneck -4.08932 -3.19932 -4.88772
upperneck 5.31215 -4.30784 4.32231
head 2.65151 -2.11989 1.9309
lclavicle 3.01663e-14 -1.38013e-14 0
lhumerus 23.1123 -29.2421 77.2092
lradius 94.3388 0 0
lwrist 37.2886 0 0
lhand -29.4198 32.9268 0
lfingers 7.12502 0 0
lthumb -2.75636 62.8102 0
rclavicle 3.01663e-14 -1.38013e-14 0
rhumerus -8.14893 24.1436 -83.5798
rradius 90.8017 0 0
rwrist -21.3901 0 0
rhand -21.4648 -42.9512 0
rfingers 7.12502 0 0
rthumb 4.92414 -72.802 0
1124
root 0.801015 14.7279 -27.6432 360.695 9.5862 363.159
lfemur -25.3692 7.70067 -23.5972
ltibia 68.3826 0 0
lfoot -27.9855 25.738 0
ltoes -19.7841 0 0
rfemur -52.7284 -7.66496 12.1498
rtibia 67.5363 0 0
rfoot 8.37095 -1.1319 0
rtoes 1.46079 0 0
lowerback 14.5811 0.263809 -9.7937
upperback -0.910648 -1.21527 1.86131
thorax -8.99882 -0.0507282 7.88522
lowerneck -3.95085 -3.59817 -5.21512
upperneck 5.53462 -4.84578 4.48947
head 2.7302 -2.39017 2.00739
lclavicle 2.96308e-14 -1.14916e-14 0
lhumerus 17.0553 -30.2401 80.6903
lradius 95.5372 0 0
lwrist 37.7095 0 0
lhand -28.8452 32.4233 0
lfingers 7.12502 0 0
lthumb -2.20145 62.3117 0
rclavicle 2.96308e-14 -1.14916e-14 0
rhumerus -4.28971 23.7022 -81.5235
rradius 92.0945 0 0
rwrist -19.6935 0 0
rhand -22.0118 -42.4325 0
rfingers 7.12502 0 0
rthumb 4.39595 -72.2937 0
1125
root 0.761776 14.7471 -27.4348 360.316 10.9698 363.151
lfemur -23.8767 7.37443 -23.1335
ltibia 67.6945 0 0
lfoot -28.2277 25.773 0
ltoes -19.9067 0 0
rfemur -52.164 -7.38161 10.9862
rtibia 64.5488 0 0
rfoot 10.6992 -0.85603 0
rtoes 2.95861 0 0
lowerback 14.4797 0.238624 -9.68597
upperback -0.885114 -1.21778 1.86363
thorax -8.91292 -0.0634128 7.82162
lowerneck -3.81237 -3.99702 -5.54251
upperneck 5.75709 -5.38372 4.65664
head 2.8089 -2.66046 2.08388
lclavicle 2.90953e-14 -9.18196e-15 0
lhumerus 10.9983 -31.2381 84.1713
lradius 96.7355 0 0
lwrist 38.1303 0 0
lhand -28.2705 31.9197 0
lfingers 7.12502 0 0
lthumb -1.64654 61.8133 0
rclavicle 2.90953e-14 -9.18196e-15 0
rhumerus -0.43049 23.2609 -79.4673
rradius 93.3874 0 0
rwrist -17.9968 0 0
rhand -22.5589 -41.9138 0
rfingers 7.12502 0 0
rthumb 3.86776 -71.7853 0
1126
root 0.722536 14.7664 -27.2263 359.936 12.3535 363.142
lfemur -22.3841 7.04819 -22.6699
ltibia 67.0065 0 0
lfoot -28.4698 25.8081 0
ltoes -20.0292 0 0
rfemur -51.5995 -7.09827 9.82264
rtibia 61.5614 0 0
rfoot 13.0275 -0.580159 0
rtoes 4.45644 0 0
lowerback 14.3784 0.213439 -9.57824
upperback -0.85958 -1.2203 1.86596
thorax -8.82702 -0.0760973 7.75803
lowerneck -3.6739 -4.39588 -5.86991
upperneck 5.97956 -5.92165 4.8238
head 2.88759 -2.93075 2.16037
lclavicle 2.85598e-14 -6.87227e-15 0
lhumerus 4.9413 -32.2361 87.6524
lradius 97.9339 0 0
lwrist 38.5512 0 0
lhand -27.6959 31.4162 0
lfingers 7.12502 0 0
lthumb -1.09163 61.3148 0
rclavicle 2.85598e-14 -6.87227e-15 0
rhumerus 3.42873 22.8195 -77.411
rradius 94.6802 0 0
rwrist -16.3001 0 0
rhand -23.1059 -41.3951 0
rfingers 7.12502 0 0
rthumb 3.33957 -71.277 0
1127
root 0.683297 14.7856 -27.0179 359.556 13.7371 363.134
lfemur -20.8916 6.72194 -22.2062
ltibia 66.3185 0 0
lfoot -28.7119 25.8431 0
ltoes -20.1518 0 0
rfemur -51.035 -6.81492 8.65904
rtibia 58.574 0 0
rfoot 15.3558 -0.304288 0
rtoes 5.95427 0 0
lowerback 14.277 0.188253 -9.47051
upperback -0.834046 -1.22282 1.86828
thorax -8.74112 -0.0887818 7.69443
lowerneck -3.53543 -4.79473 -6.1973
upperneck 6.20203 -6.45959 4.99097
head 2.96628 -3.20103 2.23685
lclavicle 2.80242e-14 -4.56259e-15 0
lhumerus -1.1157 -33.2341 91.1335
lradius 99.1322 0 0
lwrist 38.9721 0 0
lhand -27.1213 30.9127 0
lfingers 7.12502 0 0
lthumb -0.53672 60.8163 0
rclavicle 2.80242e-14 -4.56259e-15 0
rhumerus 7.28795 22.3782 -75.3548
rradius 95.9731 0 0
rwrist -14.6034 0 0
rhand -23.653 -40.8764 0
rfingers 7.12502 0 0
rthumb 2.81138 -70.7686 0
1128
root 0.644057 14.8049 -26.8094 359.176 15.1208 363.126
lfemur -19.3991 6.3957 -21.7426
ltibia 65.6305 0 0
lfoot -28.954 25.8782 0
ltoes -20.2744 0 0
rfemur -50.4705 -6.53158 7.49544
rtibia 55.5866 0 0
rfoot 17.6841 -0.0284167 0
rtoes 7.4521 0 0
lowerback 14.1756 0.163068 -9.36278
upperback -0.808511 -1.22534 1.8706
thorax -8.65522 -0.101466 7.63084
lowerneck -3.39696 -5.19358 -6.5247
upperneck 6.42449 -6.99753 5.15813
head 3.04497 -3.47132 2.31334
lclavicle 2.74887e-14 -2.2529e-15 0
lhumerus -7.1727 -34.2321 94.6145
lradius 100.331 0 0
lwrist 39.393 0 0
lhand -26.5466 30.4091 0
lfingers 7.12502 0 0
lthumb 0.01819 60.3178 0
rclavicle 2.74887e-14 -2.2529e-15 0
rhumerus 11.1472 21.9368 -73.2985
rradius 97.266 0 0
rwrist -12.9068 0 0
rhand -24.2 -40.3577 0
rfingers 7.12502 0 0
rthumb 2.28318 -70.2603 0
1129
root 0.604818 14.8241 -26.601 358.796 16.5044 363.117
lfemur -17.9065 6.06946 -21.2789
ltibia 64.9425 0 0
lfoot -29.1961 25.9132 0
ltoes -20.3969 0 0
rfemur -49.906 -6.24824 6.33184
rtibia 52.5992 0 0
rfoot 20.0124 0.247454 0
rtoes 8.94993 0 0
lowerback 14.0743 0.137883 -9.25505
upperback -0.782977 -1.22786 1.87293
thorax -8.56932 -0.114151 7.56724
lowerneck -3.25849 -5.59243 -6.8521
upperneck 6.64696 -7.53547 5.3253
head 3.12366 -3.74161 2.38983
lclavicle 2.69532e-14 5.67857e-17 0
lhumerus -13.2297 -35.2301 98.0956
lradius 101.529 0 0
lwrist 39.8138 0 0
lhand -25.972 29.9056 0
lfingers 7.12502 0 0
lthumb 0.5731 59.8193 0
rclavicle 2.69532e-14 5.67857e-17 0
rhumerus 15.0064 21.4954 -71.2423
rradius 98.5588 0 0
rwrist -11.2101 0 0
rhand -24.747 -39.839 0
rfingers 7.12502 0 0
rthumb 1.75499 -69.752 0
1130
root 0.565578 14.8434 -26.3925 358.416 17.8881 363.109
lfemur -16.414 5.74321 -20.8153
ltibia 64.2545 0 0
lfoot -29.4382 25.9483 0
ltoes -20.5195 0 0
rfemur -49.3415 -5.96489 5.16825
rtibia 49.6118 0 0
rfoot 22.3407 0.523325 0
rtoes 10.4478 0 0
lowerback 13.9729 0.112698 -9.14732
upperback -0.757443 -1.23038 1.87525
thorax -8.48342 -0.126835 7.50365
lowerneck -3.12002 -5.99128 -7.17949
upperneck 6.86943 -8.07341 5.49246
head 3.20235 -4.0119 2.46631
lclavicle 2.64176e-14 2.36647e-15 0
lhumerus -19.2867 -36.228 101.577
lradius 102.727 0 0
lwrist 40.2347 0 0
lhand -25.3974 29.4021 0
lfingers 7.12502 0 0
lthumb 1.12801 59.3208 0
rclavicle 2.64176e-14 2.36647e-15 0
rhumerus 18.8656 21.0541 -69.186
rradius 99.8517 0 0
rwrist -9.51343 0 0
rhand -25.2941 -39.3204 0
rfingers 7.12502 0 0
rthumb 1.2268 -69.2436 0
1131
root 0.526339 14.8626 -26.1841 358.036 19.2717 363.101
lfemur -14.9215 5.41697 -20.3516
ltibia 63.5665 0 0
lfoot -29.6803 25.9833 0
ltoes -20.6421 0 0
rfemur -48.777 -5.68155 4.00465
rtibia 46.6244 0 0
rfoot 24.669 0.799196 0
rtoes 11.9456 0 0
lowerback 13.8715 0.0875124 -9.03959
upperback -0.731909 -1.2329 1.87757
thorax -8.39752 -0.13952 7.44005
lowerneck -2.98155 -6.39013 -7.50689
upperneck 7.0919 -8.61135 5.65963
head 3.28104 -4.28218 2.5428
lclavicle 2.58821e-14 4.67616e-15 0
lhumerus -25.3437 -37.226 105.058
lradius 103.926 0 0
lwrist 40.6556 0 0
lhand -24.8227 28.8985 0
lfingers 7.12502 0 0
lthumb 1.68292 58.8223 0
rclavicle 2.58821e-14 4.67616e-15 0
rhumerus 22.7248 20.6127 -67.1298
rradius 101.145 0 0
rwrist -7.81675 0 0
rhand -25.8411 -38.8017 0
rfingers 7.12502 0 0
rthumb 0.698608 -68.7353 0
1132
root 0.487099 14.8819 -25.9756 357.657 20.6554 363.092
lfemur -13.429 5.09073 -19.888
ltibia 62.8784 0 0
lfoot -29.9225 26.0184 0
ltoes -20.7646 0 0
rfemur -48.2126 -5.3982 2.84105
rtibia 43.637 0 0
rfoot 26.9973 1.07507 0
rtoes 13.4434 0 0
lowerback 13.7702 0.0623271 -8.93186
upperback -0.706375 -1.23542 1.8799
thorax -8.31162 -0.152204 7.37646
lowerneck -2.84308 -6.78899 -7.83428
upperneck 7.31437 -9.14928 5.82679
head 3.35974 -4.55247 2.61929
lclavicle 2.53466e-14 6.98584e-15 0
lhumerus -31.4007 -38.224 108.539
lradius 105.124 0 0
lwrist 41.0765 0 0
lhand -24.2481 28.395 0
lfingers 7.12502 0 0
lthumb 2.23783 58.3239 0
rclavicle 2.53466e-14 6.98584e-15 0
rhumerus 26.584 20.1714 -65.0735
rradius 102.437 0 0
rwrist -6.12008 0 0
rhand -26.3882 -38.283 0
rfingers 7.12502 0 0
rthumb 0.170416 -68.2269 0
1133
root 0.44786 14.9011 -25.7672 357.277 22.039 363.084
lfemur -11.9364 4.76449 -19.4243
ltibia 62.1904 0 0
lfoot -30.1646 26.0534 0
ltoes -20.8872 0 0
rfemur -47.6481 -5.11486 1.67746
rtibia 40.6496 0 0
rfoot 29.3256 1.35094 0
rtoes 14.9412 0 0
lowerback 13.6688 0.0371418 -8.82413
upperback -0.68084 -1.23794 1.88222
thorax -8.22572 -0.164889 7.31286
lowerneck -2.70461 -7.18784 -8.16168
upperneck 7.53683 -9.68722 5.99396
head 3.43843 -4.82276 2.69578
lclavicle 2.48111e-14 9.29553e-15 0
lhumerus -37.4577 -39.222 112.02
lradius 106.322 0 0
lwrist 41.4973 0 0
lhand -23.6735 27.8915 0
lfingers 7.12502 0 0
lthumb 2.79274 57.8254 0
rclavicle 2.48111e-14 9.29553e-15 0
rhumerus 30.4433 19.73 -63.0173
rradius 103.73 0 0
rwrist -4.42341 0 0
rhand -26.9352 -37.7643 0
rfingers 7.12502 0 0
rthumb -0.357776 -67.7186 0
1134
root 0.40862 14.9204 -25.5587 356.897 23.4227 363.075
lfemur -10.4439 4.43824 -18.9607
ltibia 61.5024 0 0
lfoot -30.4067 26.0885 0
ltoes -21.0097 0 0
rfemur -47.0836 -4.83151 0.51386
rtibia 37.6622 0 0
rfoot 31.6539 1.62681 0
rtoes 16.4391 0 0
lowerback 13.5675 0.0119566 -8.7164
upperback -0.655306 -1.24046 1.88455
thorax -8.13982 -0.177573 7.24927
lowerneck -2.56614 -7.58669 -8.48907
upperneck 7.7593 -10.2252 6.16112
head 3.51712 -5.09304 2.77226
lclavicle 2.42755e-14 1.16052e-14 0
lhumerus -43.5147 -40.22 115.501
lradius 107.521 0 0
lwrist 41.9182 0 0
lhand -23.0988 27.3879 0
lfingers 7.12502 0 0
lthumb 3.34765 57.3269 0
rclavicle 2.42755e-14 1.16052e-14 0
rhumerus 34.3025 19.2887 -60.961
rradius 105.023 0 0
rwrist -2.72673 0 0
rhand -27.4823 -37.2456 0
rfingers 7.12502 0 0
rthumb -0.885968 -67.2102 0
